<svg xmlns="http://www.w3.org/2000/svg" xmlns:xlink="http://www.w3.org/1999/xlink" xmlns:inkscape="http://www.inkscape.org/namespaces/inkscape" version="1.1" width="500" height="500" viewBox="0 0 500 500">
<defs>
<clipPath id="clip_1">
<path transform="matrix(1,0,0,-1,0,500)" d="M0 500H500V0H0Z"/>
</clipPath>
</defs>
<path transform="matrix(1,0,0,-1,239.748,271.5552)" d="M0 0-29.068-44.832 30.829-44.696Z" fill="#76c0c0"/>
<g clip-path="url(#clip_1)">
<path transform="matrix(1,0,0,-1,234.4815,255.4578)" d="M0 0C.005-3.315 4.109-4.636 5.903-1.9L15.905 13.364 68.474 94.086C69.934 96.327 68.393 99.36 65.795 99.356L39.127 99.319C38.061 99.317 37.065 98.768 36.463 97.851L.507 43.032C.138 42.469-.059 41.803-.058 41.121Z" fill="#292f3d"/>
<path transform="matrix(1,0,0,-1,309.8697,341.838)" d="M0 0-119.13-.283C-120.916-.288-122.367 1.22-122.371 3.083L-122.738 170.863C-122.74 172.145-122.046 173.318-120.946 173.89L-103.18 183.129C-101.033 184.246-98.51 182.62-98.504 180.117L-98.175 29.357C-98.171 27.494-96.72 25.986-94.934 25.991L-51.8 26.093C-49.197 26.1-47.668 29.149-49.147 31.384L-71.435 65.073C-72.196 66.223-72.198 67.743-71.442 68.896L-58.044 89.317C-56.762 91.273-53.998 91.275-52.712 89.323L2.657 5.286C4.13 3.05 2.6 .006 0 0" fill="#292f3d"/>
<path transform="matrix(1,0,0,-1,196.4976,378.7521)" d="M0 0H-.042C-.293-.042-.504-.126-.672-.252H0ZM16.043-10.164 14.279-8.945C11.675-7.14 8.4-4.914 4.452-2.184 4.158-2.016 3.57-1.597 2.646-.966L2.604-.924C2.058-1.092 1.513-1.218 .966-1.302 .798-5.838 .714-8.19 .714-8.358 .714-8.526 .672-8.694 .589-8.778 .463-8.903 .378-8.945 .21-8.988 .084-8.988-.042-8.903-.126-8.778-.251-8.652-.293-8.526-.293-8.358-.21-6.426-.126-4.116-.042-1.386L-.504-1.429C-.966-1.429-1.428-1.386-1.847-1.26-2.1-1.218-2.226-1.008-2.226-.715-2.226-.589-2.226-.505-2.184-.378-1.68 .588-.966 1.133 .042 1.175 .168 4.494 .21 7.098 .21 9.03 .21 11.633 .126 14.279-.042 16.925-.042 17.26 .126 17.471 .463 17.513 .589 17.513 .714 17.428 .798 17.344 .882 17.218 .924 17.093 .924 16.925 1.134 14.321 1.218 11.675 1.218 8.945 1.218 6.467 1.176 4.031 1.05 1.554V1.091C1.513 1.049 2.058 .798 2.73 .335 3.528 .588 4.494 .966 5.628 1.512H5.67V1.554H5.712C6.804 2.099 7.77 2.73 8.735 3.444L9.45 4.031C9.45 4.073 9.45 4.115 9.492 4.115L9.743 4.368C10.332 4.871 10.793 5.46 11.256 6.047L11.465 6.384 11.507 6.425C11.507 6.425 11.549 6.467 11.549 6.509 11.591 6.509 11.591 6.551 11.633 6.635 11.97 7.14 12.264 7.727 12.515 8.315L12.599 8.609 12.641 8.651V8.693C12.641 8.735 12.641 8.777 12.683 8.819 12.683 8.861 12.726 8.945 12.726 8.988 12.936 9.617 13.062 10.247 13.146 10.878V11.171C13.187 11.381 13.187 11.633 13.187 11.927 13.187 12.389 13.187 12.767 13.146 13.103L13.104 13.187 13.062 13.733C12.936 14.447 12.768 15.077 12.557 15.623 12.557 15.665 12.557 15.665 12.515 15.665 12.473 15.833 12.389 16.127 12.18 16.547 11.886 17.218 11.591 17.765 11.298 18.184V18.226L11.13 18.437C10.751 18.982 10.206 19.613 9.576 20.285H9.534C9.534 20.327 9.492 20.327 9.492 20.327V20.369C8.735 20.998 8.064 21.419 7.518 21.712L7.266 21.838 6.971 21.964C6.342 22.259 5.628 22.469 4.788 22.594H4.746C4.662 22.594 4.578 22.636 4.452 22.636 4.074 22.678 3.696 22.72 3.36 22.72 2.562 22.72 2.016 22.678 1.68 22.594 1.638 22.594 1.596 22.594 1.596 22.552 1.429 22.552 1.302 22.552 1.176 22.511 .42 22.343-.293 22.132-1.05 21.838-1.554 21.629-1.847 21.503-1.974 21.419L-2.058 21.377C-3.108 20.872-4.115 20.2-5.081 19.403L-5.501 18.982-5.585 18.899C-6.174 18.395-6.761 17.765-7.265 17.051-7.307 16.967-7.349 16.967-7.349 16.925L-7.433 16.757C-7.685 16.378-7.853 16.001-8.022 15.623L-8.064 15.454-8.105 15.329C-8.189 15.161-8.231 15.035-8.231 14.867-8.315 14.614-8.315 14.447-8.357 14.447V14.153 13.691 13.397C-8.357 13.355-8.357 13.355-8.315 13.355H-8.357C-8.273 12.893-8.189 12.557-8.105 12.431V12.347L-8.064 12.263C-7.937 11.927-7.769 11.633-7.643 11.339-7.602 11.297-7.602 11.297-7.56 11.255V11.213L-7.433 11.045C-7.182 10.709-6.929 10.415-6.678 10.163L-6.593 10.079C-6.047 9.659-5.501 9.281-4.914 8.945H-4.83C-4.241 8.609-3.318 8.273-2.058 7.895-1.806 7.811-1.68 7.601-1.68 7.349L-1.722 7.182C-1.764 6.887-1.932 6.719-2.184 6.719-2.351 6.719-2.94 6.929-3.948 7.307-6.551 8.148-8.273 9.743-9.071 12.095-9.281 12.682-9.365 13.271-9.365 13.901-9.365 14.53-9.239 15.161-9.029 15.791-8.609 17.009-7.937 18.058-7.098 18.941-5.501 20.705-3.653 22.006-1.554 22.888 0 23.56 1.596 23.896 3.234 23.896 5.964 23.896 8.316 22.972 10.29 21.082 11.802 19.655 12.894 17.849 13.607 15.707 13.986 14.488 14.195 13.271 14.195 12.011 14.195 11.087 14.07 10.121 13.86 9.197 13.229 6.929 12.096 5.081 10.541 3.57 8.945 2.099 7.224 .924 5.292 .084 4.83-.126 4.368-.294 3.948-.463L16.59-9.114C16.716-9.24 16.799-9.45 16.799-9.66 16.799-9.743 16.799-9.869 16.758-9.954 16.674-10.164 16.506-10.248 16.295-10.248 16.211-10.248 16.127-10.206 16.043-10.164" fill="#76c0c0"/>
<path transform="matrix(1,0,0,-1,214.0984,374.0491)" d="M0 0C1.513 .715 2.605 1.555 3.276 2.521L3.319 2.646C2.94 2.604 2.605 2.563 2.31 2.437 2.016 2.31 1.681 2.058 1.26 1.722 .883 1.386 .589 1.092 .336 .799 .126 .505-.083 .21-.209-.083ZM-1.217-5.711C-1.805-4.955-2.141-4.073-2.141-3.107-2.141-1.889-1.805-.714-1.133 .462-.588 1.429 .126 2.226 1.05 2.856 1.806 3.403 2.563 3.696 3.234 3.696 3.78 3.696 4.116 3.445 4.327 2.982L4.369 2.646C4.369 2.184 4.074 1.722 3.529 1.176 2.31-.083 .883-.924-.798-1.385-.923-1.848-1.007-2.225-1.007-2.436-1.049-2.646-1.049-2.855-1.049-3.107-1.049-3.654-.965-4.073-.84-4.326L-.798-4.41C-.756-4.577-.672-4.703-.546-4.871-.461-5.039-.377-5.123-.335-5.123-.251-5.165-.209-5.165-.209-5.208L.252-5.459 .378-5.501C.757-5.585 .966-5.627 .966-5.627 1.008-5.669 1.134-5.669 1.386-5.669 2.142-5.669 2.982-5.459 3.906-5.039 4.578-4.787 5.418-4.326 6.384-3.528L6.468-3.486C6.804-3.233 7.308-2.813 7.938-2.183 8.778-1.385 9.282-.882 9.45-.63 9.576-.546 9.66-.504 9.786-.504 10.164-.504 10.374-.672 10.374-1.007 10.374-1.175 10.332-1.259 10.206-1.385 8.82-2.981 7.224-4.326 5.418-5.418 3.948-6.3 2.647-6.719 1.471-6.719 .336-6.719-.546-6.383-1.217-5.711" fill="#76c0c0"/>
<path transform="matrix(1,0,0,-1,227.0772,382.1127)" d="M0 0C.042 .126 .084 .336 .126 .505 .168 .715 .168 .924 .168 1.134 .126 1.344 .084 1.471 .084 1.555 .042 1.639 0 1.722 0 1.764-.042 1.848-.042 1.932-.126 2.058-.168 2.142-.209 2.268-.293 2.395-.293 2.437-.293 2.437-.335 2.437L-.882 1.722C-1.008 1.513-1.133 1.302-1.259 1.05L-1.428 .631C-1.554 .294-1.638 0-1.596-.293-1.596-.63-1.47-.798-1.259-.882-1.05-.966-.84-.966-.63-.798-.419-.672-.209-.419 0 0M-2.814 7.56C-2.183 7.77-1.638 7.938-1.217 8.106L-.966 8.232-.84 8.274C-.377 8.442 0 8.694 .336 8.903L.378 8.945 .336 8.903 .378 8.945C.378 8.945 .42 8.945 .42 8.988 .463 8.988 .505 9.03 .547 9.114L.756 9.282 .84 9.408 .966 9.66 1.008 9.744C1.05 9.827 1.05 9.912 1.05 9.996V10.206 10.29L.966 10.458H.924C.924 10.5 .882 10.542 .84 10.584L.756 10.626C.673 10.667 .589 10.709 .547 10.709 .336 10.709 .168 10.667 .042 10.667H-.084C-.251 10.626-.419 10.584-.546 10.542-.546 10.542-.588 10.542-.588 10.5-.672 10.5-.756 10.458-.756 10.458L-.798 10.416C-.924 10.374-1.175 10.206-1.554 9.912-1.932 9.618-2.183 9.408-2.267 9.282L-2.351 9.156C-2.52 8.988-2.646 8.736-2.73 8.442-2.814 8.232-2.856 7.896-2.897 7.56ZM-2.436-1.259C-2.604-.966-2.688-.672-2.688-.335-2.688 .084-2.604 .505-2.436 .882-2.099 1.848-1.596 2.646-.924 3.319-1.259 3.654-1.554 3.99-1.89 4.327-2.604 5.04-3.149 5.712-3.528 6.3-3.779 6.594-3.905 6.93-3.947 7.266L-3.989 7.602C-3.989 7.77-3.947 7.98-3.905 8.232-3.612 9.45-2.897 10.374-1.848 11.046-1.133 11.508-.419 11.759 .42 11.759 .882 11.759 1.302 11.591 1.638 11.256 1.932 10.962 2.1 10.584 2.1 10.164 2.1 9.785 2.016 9.492 1.89 9.156 1.597 8.568 1.092 8.106 .505 7.77-.335 7.308-1.301 6.93-2.436 6.594V6.51C-2.394 6.468-2.309 6.342-2.141 6.133-1.932 5.922-1.68 5.628-1.385 5.292-.966 4.914-.588 4.494-.209 4.074L.168 4.41C1.26 5.46 2.688 6.468 4.41 7.476 4.494 7.518 4.578 7.518 4.662 7.518 4.704 7.518 4.788 7.518 4.872 7.476 4.956 7.476 5.04 7.392 5.124 7.308 5.167 7.182 5.208 7.098 5.208 7.014 5.208 6.804 5.124 6.678 4.956 6.552 3.99 6.006 3.234 5.544 2.688 5.124 2.353 4.914 2.184 4.788 2.142 4.746 1.722 4.41 1.134 3.906 .42 3.234 .966 2.479 1.218 1.681 1.218 .84 1.218-.377 .714-1.259-.293-1.806-.546-1.931-.84-2.015-1.175-2.015-1.722-2.015-2.183-1.764-2.436-1.259" fill="#76c0c0"/>
<path transform="matrix(1,0,0,-1,233.1256,382.0286)" d="M0 0C-.714 .882-1.175 2.058-1.385 3.528-1.596 5.208-1.722 6.93-1.722 8.61V11.424C-1.722 12.557-1.722 13.649-1.68 14.784H-9.449C-10.373 14.784-11.213 14.784-11.927 14.742-12.263 14.784-12.431 14.952-12.431 15.287-12.431 15.455-12.389 15.54-12.263 15.666-12.179 15.75-12.053 15.792-11.927 15.834H-5.081-1.638C-1.596 17.261-1.512 18.689-1.428 20.117-1.385 20.453-1.217 20.621-.882 20.663-.756 20.663-.63 20.621-.504 20.495-.419 20.412-.377 20.286-.377 20.117L-.419 19.655C-.504 18.396-.546 17.093-.588 15.834 2.856 15.834 4.914 15.834 5.586 15.876 5.922 15.834 6.09 15.666 6.133 15.329 6.133 14.952 5.88 14.784 5.418 14.784H-.63V14.405C-.672 13.272-.672 12.138-.672 11.046-.672 7.896-.588 5.586-.419 4.116L-.335 3.78C-.335 3.612-.293 3.444-.251 3.319-.167 2.73-.041 2.31 .084 1.974L.168 1.764 .21 1.68C.294 1.386 .463 1.134 .631 .924V.882L.715 .798 .673 .84 .715 .798C.799 .673 .841 .589 .966 .505L1.008 .463 1.218 .336 1.513 .252H1.597 1.848C1.974 .252 2.1 .294 2.184 .336H2.226 2.268C2.268 .378 2.31 .378 2.353 .42 2.395 .42 2.437 .463 2.479 .463 2.521 .505 2.605 .547 2.605 .589 2.646 .589 2.73 .631 2.814 .715L3.066 .924C3.15 1.008 3.234 1.134 3.361 1.218L3.696 1.638 4.285 2.479C4.998 3.57 5.838 5.124 6.762 7.098 6.846 7.266 7.014 7.35 7.182 7.35 7.392 7.35 7.518 7.308 7.602 7.182 7.686 7.055 7.728 6.972 7.728 6.846 7.728 6.762 7.728 6.678 7.686 6.552 7.099 5.292 6.426 3.99 5.586 2.604 5.04 1.513 4.285 .589 3.361-.209 2.856-.588 2.31-.798 1.681-.798 1.008-.798 .463-.504 0 0" fill="#76c0c0"/>
<path transform="matrix(1,0,0,-1,257.8219,374.889)" d="M0 0C.042-.167-.21-.588-.799-1.259-1.386-1.973-2.1-2.604-2.898-3.149-3.696-3.737-4.536-3.947-5.418-3.737-6.3-3.528-6.888-2.897-7.182-1.764L-7.434-1.932C-8.903-2.939-9.996-3.57-10.709-3.821-11.928-4.284-13.02-4.536-13.986-4.536-15.96-4.536-17.345-3.989-18.059-2.855-18.311-2.436-18.438-1.973-18.438-1.512-18.438-.126-16.967 .966-13.986 1.68-12.81 1.974-11.466 2.1-9.912 2.1-8.148 2.1-6.636 1.68-5.376 .798-5.251 .673-5.209 .547-5.209 .42-5.209 .042-5.418-.126-5.796-.126-5.922-.126-6.048-.084-6.175 .042-6.804 .378-7.224 .589-7.518 .715-8.106 .924-8.862 1.05-9.827 1.05-11.466 1.05-12.894 .882-14.028 .547-14.7 .336-15.413 .084-16.127-.251-16.884-.63-17.261-1.091-17.261-1.68-17.261-2.52-16.548-3.107-15.12-3.402-14.91-3.402-14.784-3.402-14.658-3.444-12.599-3.402-10.458-2.646-8.274-1.259-7.77-.882-7.434-.63-7.224-.419-7.098-.335-6.972-.293-6.762-.293-6.51-.377-6.384-.504-6.342-.672-6.258-1.133-6.175-1.512-6.048-1.806-5.922-2.099-5.838-2.351-5.712-2.478-5.586-2.646-5.418-2.772-5.124-2.814-4.83-2.897-4.41-2.772-3.822-2.478-3.234-2.183-2.688-1.764-2.226-1.259-1.764-.756-1.344-.335-1.05 0-.757 .294-.547 .42-.42 .378-.21 .294-.084 .168 0 0" fill="#76c0c0"/>
<path transform="matrix(1,0,0,-1,259.2104,381.2308)" d="M0 0C-1.092 .42-1.722 1.386-1.848 2.856-1.974 3.696-2.016 4.536-2.016 5.334-2.016 7.938-1.764 9.24-1.26 9.24-1.134 9.24-1.008 9.198-.924 9.114-.798 9.072-.714 8.903-.714 8.736-.882 7.686-.966 6.636-.966 5.502-.966 3.654-.84 2.479-.546 1.974-.42 1.723-.336 1.597-.336 1.597-.336 1.555-.336 1.555-.294 1.513-.294 1.513-.252 1.471-.252 1.429-.252 1.386-.126 1.302 .042 1.176 .084 1.176 .084 1.134 .084 1.134 .336 .966 .504 .924 .63 .924L.672 .882 .882 .924 .84 .882 1.26 1.008 1.68 1.26C1.68 1.26 1.68 1.302 1.722 1.302 2.142 1.597 2.478 1.974 2.772 2.395L2.814 2.437C3.444 3.276 3.906 4.158 4.284 5.082 4.241 5.796 4.199 6.216 4.199 6.384 4.199 7.35 4.368 8.148 4.704 8.694 4.871 8.945 5.081 9.072 5.334 9.072 5.544 9.072 5.67 8.988 5.837 8.862 5.963 8.694 6.047 8.526 6.047 8.358 6.047 7.434 5.795 6.3 5.376 4.998 5.46 4.536 5.544 4.327 5.544 4.327 5.544 4.327 5.544 4.285 5.586 4.285 5.586 4.243 5.586 4.2 5.628 4.158 5.712 3.948 5.795 3.822 5.879 3.738V3.696C5.963 3.612 6.005 3.57 6.047 3.528 6.132 3.487 6.174 3.445 6.174 3.403 6.384 3.276 6.552 3.192 6.761 3.15 6.761 3.15 6.761 3.108 6.803 3.108H6.887 7.308C7.434 3.108 7.643 3.192 7.895 3.276 7.895 3.276 7.937 3.276 7.979 3.319 8.483 3.57 8.819 3.822 9.03 4.116 9.03 4.2 9.072 4.243 9.114 4.285 9.365 4.536 9.743 5.167 10.206 6.216 10.289 6.384 10.457 6.51 10.667 6.51 11.004 6.468 11.213 6.3 11.213 5.964 11.213 5.88 11.171 5.796 11.13 5.712 10.709 4.788 10.331 4.074 9.869 3.487 9.072 2.521 8.148 2.058 7.055 2.058 6.005 2.058 5.208 2.563 4.746 3.57 4.326 2.73 3.78 1.932 3.149 1.218 2.394 .294 1.638-.125 .798-.125 .546-.125 .294-.083 0 0" fill="#76c0c0"/>
<path transform="matrix(1,0,0,-1,272.0641,372.3683)" d="M0 0-.042-.042ZM-2.058-1.848H-2.1L-2.058-1.89ZM-.966-1.176C-.505-.757-.168-.378-.042-.042L0 0C.041 .125 .041 .209 .041 .251V.419C0 .419 0 .461 0 .461 0 .504 0 .504-.042 .504V.546L-.084 .588H-.126-.252C-.673 .504-1.092 .251-1.555-.168-1.974-.589-2.226-1.008-2.226-1.471-2.184-1.639-2.142-1.764-2.058-1.848V-1.89C-2.016-1.89-1.974-1.974-1.932-2.016-1.723-1.89-1.387-1.597-.966-1.176M-1.176-10.248C-1.513-10.038-1.681-9.744-1.681-9.408-1.681-9.03-1.597-8.61-1.387-8.148-1.176-7.686-.924-7.266-.631-6.846-.042-5.964 .251-5.418 .251-5.124V-4.956C.251-4.578 .125-4.327-.168-4.116-.42-3.906-.757-3.738-1.134-3.57-1.555-3.403-1.89-3.234-2.268-3.024-2.898-2.647-3.192-2.1-3.192-1.344-3.192-1.008-3.066-.631-2.856-.21-2.605 .251-2.226 .63-1.681 1.007-1.134 1.385-.631 1.554-.168 1.596 .377 1.554 .714 1.301 .965 .798 1.007 .672 1.049 .504 1.049 .335 1.049-.042 .882-.505 .504-1.008 .041-1.597-.463-2.1-1.05-2.563L-.757-2.688C.588-3.234 1.259-3.99 1.259-4.914 1.259-5.544 .923-6.342 .251-7.308 0-7.644-.21-8.023-.42-8.4-.631-8.736-.715-9.072-.715-9.366-.715-9.408-.673-9.408-.589-9.408-.505-9.408-.378-9.324-.126-9.156L-.042-9.072C.209-8.862 .672-8.358 1.343-7.602 3.149-5.544 4.452-3.822 5.208-2.479 5.292-2.31 5.459-2.226 5.669-2.226 5.711-2.226 5.795-2.268 5.879-2.31 6.047-2.395 6.132-2.521 6.132-2.688 6.132-2.772 6.089-2.898 6.047-2.982 5.543-3.906 4.745-4.998 3.695-6.3 2.646-7.644 1.722-8.652 1.007-9.45 .419-10.08-.126-10.374-.589-10.374-.799-10.374-.966-10.332-1.176-10.248" fill="#76c0c0"/>
<path transform="matrix(1,0,0,-1,294.9114,374.889)" d="M0 0C.042-.167-.21-.588-.799-1.259-1.387-1.973-2.1-2.604-2.898-3.149-3.696-3.737-4.536-3.947-5.418-3.737-6.3-3.528-6.888-2.897-7.182-1.764L-7.434-1.932C-8.903-2.939-9.996-3.57-10.709-3.821-11.928-4.284-13.02-4.536-13.986-4.536-15.96-4.536-17.345-3.989-18.059-2.855-18.311-2.436-18.438-1.973-18.438-1.512-18.438-.126-16.967 .966-13.986 1.68-12.81 1.974-11.466 2.1-9.912 2.1-8.148 2.1-6.636 1.68-5.376 .798-5.251 .673-5.209 .547-5.209 .42-5.209 .042-5.418-.126-5.796-.126-5.922-.126-6.048-.084-6.175 .042-6.804 .378-7.224 .589-7.518 .715-8.106 .924-8.862 1.05-9.827 1.05-11.466 1.05-12.894 .882-14.028 .547-14.7 .336-15.413 .084-16.127-.251-16.884-.63-17.261-1.091-17.261-1.68-17.261-2.52-16.548-3.107-15.12-3.402-14.91-3.402-14.784-3.402-14.658-3.444-12.599-3.402-10.458-2.646-8.274-1.259-7.77-.882-7.434-.63-7.224-.419-7.098-.335-6.972-.293-6.762-.293-6.51-.377-6.384-.504-6.342-.672-6.258-1.133-6.175-1.512-6.048-1.806-5.922-2.099-5.838-2.351-5.712-2.478-5.586-2.646-5.418-2.772-5.124-2.814-4.83-2.897-4.41-2.772-3.822-2.478-3.234-2.183-2.688-1.764-2.226-1.259-1.764-.756-1.344-.335-1.05 0-.757 .294-.547 .42-.42 .378-.21 .294-.084 .168 0 0" fill="#76c0c0"/>
<path transform="matrix(1,0,0,-1,295.5441,382.6162)" d="M0 0C-.252 0-.42 .168-.505 .419-1.008 2.772-1.344 5.123-1.429 7.434-1.429 7.601-1.386 7.727-1.26 7.811-1.176 7.895-1.05 7.979-.924 7.979-.756 7.979-.631 7.937-.547 7.811-.462 7.685-.378 7.601-.378 7.434-.336 6.594-.294 5.628-.168 4.578V4.704C-.126 4.872-.084 4.997-.084 5.165 .126 7.392 .546 9.114 1.217 10.248 1.512 10.878 1.932 11.171 2.478 11.171 2.562 11.171 2.688 11.171 2.772 11.13 3.402 10.92 3.78 10.499 3.947 9.827 4.073 9.282 4.157 8.567 4.157 7.727 4.157 7.182 4.115 6.384 4.031 5.25 3.947 4.746 3.947 4.199 3.947 3.696 3.947 3.57 3.989 3.36 4.031 3.108 4.073 2.814 4.115 2.604 4.157 2.436L4.326 2.225C4.368 2.142 4.41 2.1 4.452 2.1L4.536 2.016 4.578 1.974 4.829 2.142 4.913 2.225C5.081 2.351 5.25 2.52 5.418 2.73 6.005 3.528 6.551 4.368 7.013 5.123 7.266 5.628 7.811 6.51 8.609 7.727 8.735 7.895 8.903 7.979 9.072 7.979 9.156 7.979 9.239 7.979 9.365 7.895 9.533 7.811 9.617 7.643 9.617 7.434 9.617 7.35 9.575 7.266 9.533 7.182 9.072 6.468 8.609 5.754 8.19 5.039L7.559 4.031C6.384 1.974 5.376 .924 4.578 .924 4.241 .924 3.905 1.092 3.612 1.385 3.149 1.974 2.898 2.898 2.898 4.199 2.898 4.704 2.939 5.208 3.023 5.712 3.065 6.426 3.107 7.14 3.107 7.853 3.107 8.19 3.107 8.525 3.065 8.861V9.03L2.939 9.575C2.898 9.617 2.898 9.659 2.898 9.701 2.856 9.701 2.856 9.743 2.856 9.785L2.814 9.827V9.869C2.772 9.912 2.772 9.912 2.772 9.954L2.604 10.08 2.52 10.122H2.478 2.52 2.436 2.394C2.394 10.08 2.352 10.08 2.352 10.08 2.352 10.038 2.309 10.038 2.309 10.038V9.996C2.267 9.954 2.267 9.954 2.267 9.912 2.141 9.785 1.974 9.533 1.806 9.114V9.03C1.764 9.03 1.764 9.03 1.764 8.988 1.764 8.945 1.68 8.777 1.554 8.442 1.343 7.601 1.175 6.803 1.05 5.963L.966 5.165C.84 4.242 .714 2.688 .546 .546 .504 .252 .335 .084 .084 0Z" fill="#76c0c0"/>
<path transform="matrix(1,0,0,-1,305.9181,382.0286)" d="M0 0C-.714 .882-1.175 2.058-1.385 3.528-1.596 5.208-1.722 6.93-1.722 8.61V11.424C-1.722 12.557-1.722 13.649-1.68 14.784H-9.449C-10.373 14.784-11.213 14.784-11.927 14.742-12.263 14.784-12.431 14.952-12.431 15.287-12.431 15.455-12.389 15.54-12.263 15.666-12.179 15.75-12.053 15.792-11.927 15.834H-5.081-1.638C-1.596 17.261-1.512 18.689-1.427 20.117-1.385 20.453-1.217 20.621-.882 20.663-.756 20.663-.63 20.621-.504 20.495-.419 20.412-.377 20.286-.377 20.117L-.419 19.655C-.504 18.396-.546 17.093-.588 15.834 2.856 15.834 4.914 15.834 5.586 15.876 5.922 15.834 6.09 15.666 6.133 15.329 6.133 14.952 5.88 14.784 5.418 14.784H-.63V14.405C-.672 13.272-.672 12.138-.672 11.046-.672 7.896-.588 5.586-.419 4.116L-.335 3.78C-.335 3.612-.293 3.444-.251 3.319-.167 2.73-.041 2.31 .084 1.974L.168 1.764 .21 1.68C.294 1.386 .462 1.134 .631 .924V.882L.715 .798 .673 .84 .715 .798C.799 .673 .841 .589 .966 .505L1.008 .463 1.218 .336 1.513 .252H1.597 1.848C1.974 .252 2.1 .294 2.184 .336H2.226 2.268C2.268 .378 2.31 .378 2.353 .42 2.395 .42 2.437 .463 2.479 .463 2.521 .505 2.605 .547 2.605 .589 2.646 .589 2.73 .631 2.814 .715L3.066 .924C3.15 1.008 3.234 1.134 3.361 1.218L3.696 1.638 4.285 2.479C4.998 3.57 5.838 5.124 6.762 7.098 6.846 7.266 7.014 7.35 7.182 7.35 7.392 7.35 7.518 7.308 7.602 7.182 7.686 7.055 7.728 6.972 7.728 6.846 7.728 6.762 7.728 6.678 7.686 6.552 7.099 5.292 6.426 3.99 5.586 2.604 5.04 1.513 4.285 .589 3.361-.209 2.856-.588 2.31-.798 1.681-.798 1.008-.798 .462-.504 0 0" fill="#76c0c0"/>
<path transform="matrix(1,0,0,-1,218.4431,356.2749)" d="M0 0H-.223L-.111 .111Z" fill="#76c0c0"/>
<path transform="matrix(1,0,0,-1,215.2425,353.575)" d="M0 0C.263 .107 .523-.159 .409-.419L-.553-2.627-1.069-3.801C-1.139-3.961-1.324-4.034-1.484-3.964L-5.271-2.323-5.329-2.177-5.192-2.122-5.38-2.033-5.329-2.177-5.476-2.235-9.269-.591C-9.429-.522-9.503-.335-9.433-.175L-8.924 1-7.971 3.213C-7.859 3.473-7.487 3.466-7.385 3.201L-6.277 .307-5.345 .664-3.987 1.187C-3.825 1.249-3.642 1.169-3.579 1.006L-2.868-.824C-2.804-.989-2.618-1.069-2.454-1.002Z" fill="#76c0c0"/>
<path transform="matrix(1,0,0,-1,218.4431,356.2749)" d="M0 0H-.223L-.111 .111Z" fill="#76c0c0"/>
</g>
</svg>
